<svg width="256" height="256" viewBox="0 0 256 256" fill="none" xmlns="http://www.w3.org/2000/svg">
<rect width="256" height="256" fill="#FA9884"/>
<path d="M90 60C90 54.4772 94.4772 50 100 50H155C160.523 50 165 54.4772 165 60V205H90V60Z" fill="#FFF5EB"/>
<path d="M145 105H210C215.523 105 220 109.477 220 115V205H145V105Z" fill="#FFF5EB"/>
<path d="M35 146C35 140.477 39.4772 136 45 136H110V205H35V146Z" fill="#FFF5EB"/>
<path d="M165 125H197C198.657 125 200 126.343 200 128V188H165V125Z" fill="#FA9884"/>
<path d="M110 73C110 71.3431 111.343 70 113 70H142C143.657 70 145 71.3431 145 73V188H110V73Z" fill="#FA9884"/>
<path d="M55 159C55 157.343 56.3431 156 58 156H90V188H55V159Z" fill="#FA9884"/>
</svg>
