<svg width="256" height="256" viewBox="0 0 256 256" fill="none" xmlns="http://www.w3.org/2000/svg">
<rect x="45" y="83" width="118" height="45" fill="#D9D9D9"/>
<rect width="118" height="45" transform="matrix(1 0 0 -1 45 173)" fill="#D9D9D9"/>
<path d="M181.854 78.4032C183.668 75.6234 187.837 76.1627 188.728 79.36C192.821 94.0564 195 110.842 195 128C195 145.158 192.821 161.944 188.728 176.64C187.837 179.837 183.668 180.377 181.854 177.597V177.597C181.182 176.566 181.027 175.285 181.407 174.115C185.811 160.55 188.175 144.477 188.175 128C188.175 111.523 185.811 95.4498 181.407 81.8851C181.027 80.7147 181.182 79.4339 181.854 78.4032V78.4032Z" fill="#D9D9D9"/>
<path d="M81 83L155.25 34.1036C158.575 31.9143 163 34.2988 163 38.2795V83H81Z" fill="#D9D9D9"/>
<path d="M81 173L155.25 221.896C158.575 224.086 163 221.701 163 217.721V173H81Z" fill="#D9D9D9"/>
</svg>
